<svg xmlns="http://www.w3.org/2000/svg" width="1059" height="737" viewBox="0 0 1059 737">
<rect x="0" y="0" width="1059" height="737" fill="#ffffff"/>
<text x="12" y="20" font-size="14" font-family="Arial">Layout de corte - fondo_6mm - hoja 1/1</text>
<rect x="40" y="58" width="980.0" height="633.5" fill="#f8f9fa" stroke="#333" stroke-width="1.2"/>
<text x="40" y="52" font-size="11" font-family="Arial">Placa 1</text>
<rect x="259.8" y="58.0" width="219.8" height="176.0" fill="#d9e8fb" stroke="#555" stroke-width="0.8"/>
<text x="262.8" y="71.0" font-size="9" font-family="Arial">BB18c (625x500) - Fondo clavado pasante</text>
<rect x="748.0" y="114.0" width="176.0" height="295.8" fill="#fce8d6" stroke="#555" stroke-width="0.8"/>
<text x="751.0" y="127.0" font-size="9" font-family="Arial">BA15c (842x500) - Fondo clavado pasante</text>
<rect x="578.6" y="123.1" width="142.8" height="108.1" fill="#d9f2e6" stroke="#555" stroke-width="0.8"/>
<text x="581.6" y="136.1" font-size="9" font-family="Arial">I19c (405x306) - Fondo clavado pasante</text>
<rect x="40.0" y="163.3" width="219.8" height="176.0" fill="#f5d9fb" stroke="#555" stroke-width="0.8"/>
<text x="43.0" y="176.3" font-size="9" font-family="Arial">BB17c (625x500) - Fondo clavado pasante</text>
<rect x="479.6" y="231.2" width="142.8" height="108.1" fill="#fde2e2" stroke="#555" stroke-width="0.8"/>
<text x="482.6" y="244.2" font-size="9" font-family="Arial">I20c (405x306) - Fondo clavado pasante</text>
<rect x="303.6" y="234.0" width="176.0" height="295.8" fill="#fff3cd" stroke="#555" stroke-width="0.8"/>
<text x="306.6" y="247.0" font-size="9" font-family="Arial">BA14c (842x500) - Fondo clavado pasante</text>
<rect x="40.0" y="339.4" width="219.8" height="176.0" fill="#d9e8fb" stroke="#555" stroke-width="0.8"/>
<text x="43.0" y="352.4" font-size="9" font-family="Arial">BB14c (625x500) - Fondo clavado pasante</text>
<rect x="479.6" y="339.4" width="219.8" height="176.0" fill="#fce8d6" stroke="#555" stroke-width="0.8"/>
<text x="482.6" y="352.4" font-size="9" font-family="Arial">BB15c (625x500) - Fondo clavado pasante</text>
<rect x="721.4" y="409.8" width="268.4" height="277.5" fill="#d9f2e6" stroke="#555" stroke-width="0.8"/>
<text x="724.4" y="422.8" font-size="9" font-family="Arial">R4 (764x790) - Sin canto</text>
<rect x="83.8" y="515.5" width="219.8" height="176.0" fill="#f5d9fb" stroke="#555" stroke-width="0.8"/>
<text x="86.8" y="528.5" font-size="9" font-family="Arial">BB16c (625x500) - Fondo clavado pasante</text>
<rect x="501.6" y="515.5" width="219.8" height="176.0" fill="#fde2e2" stroke="#555" stroke-width="0.8"/>
<text x="504.6" y="528.5" font-size="9" font-family="Arial">BB19c (625x500) - Fondo clavado pasante</text>
<rect x="336.8" y="529.8" width="142.8" height="108.1" fill="#fff3cd" stroke="#555" stroke-width="0.8"/>
<text x="339.8" y="542.8" font-size="9" font-family="Arial">I21c (405x306) - Fondo clavado pasante</text>
</svg>