<svg xmlns="http://www.w3.org/2000/svg" width="1035" height="1474" viewBox="0 0 1035 1474">
<rect x="0" y="0" width="1035" height="1474" fill="#ffffff"/>
<text x="12" y="20" font-size="14" font-family="Arial">Layout de corte - blanco_18mm - hoja 3/4</text>
<rect x="40" y="58" width="955.5" height="633.5" fill="#f8f9fa" stroke="#333" stroke-width="1.2"/>
<text x="40" y="52" font-size="11" font-family="Arial">Placa 5</text>
<rect x="40" y="795" width="955.5" height="633.5" fill="#f8f9fa" stroke="#333" stroke-width="1.2"/>
<text x="40" y="789" font-size="11" font-family="Arial">Placa 6</text>
<rect x="40.0" y="58.0" width="271.2" height="211.0" fill="#fde2e2" stroke="#555" stroke-width="0.8"/>
<text x="43.0" y="71.0" font-size="9" font-family="Arial">BB7 (772x600) - Canto frente</text>
<rect x="311.2" y="58.0" width="236.2" height="211.0" fill="#fff3cd" stroke="#555" stroke-width="0.8"/>
<text x="314.2" y="71.0" font-size="9" font-family="Arial">H3 (672x600) - Canto frente</text>
<rect x="547.5" y="58.0" width="236.2" height="211.0" fill="#d9e8fb" stroke="#555" stroke-width="0.8"/>
<text x="550.5" y="71.0" font-size="9" font-family="Arial">H4 (672x600) - Sin canto</text>
<rect x="783.8" y="58.0" width="211.0" height="160.3" fill="#fce8d6" stroke="#555" stroke-width="0.8"/>
<text x="786.8" y="71.0" font-size="9" font-family="Arial">H2B (600x455) - Canto frente</text>
<rect x="40.0" y="269.0" width="228.5" height="211.4" fill="#d9f2e6" stroke="#555" stroke-width="0.8"/>
<text x="43.0" y="282.0" font-size="9" font-family="Arial">I8B (650x601) - Canto frente</text>
<rect x="268.5" y="269.0" width="228.5" height="211.4" fill="#f5d9fb" stroke="#555" stroke-width="0.8"/>
<text x="271.5" y="282.0" font-size="9" font-family="Arial">I8C (650x601) - Canto frente</text>
<rect x="497.1" y="269.0" width="223.6" height="211.0" fill="#fde2e2" stroke="#555" stroke-width="0.8"/>
<text x="500.1" y="282.0" font-size="9" font-family="Arial">H5 (636x600) - Canto frente</text>
<rect x="720.8" y="269.0" width="223.6" height="211.0" fill="#fff3cd" stroke="#555" stroke-width="0.8"/>
<text x="723.8" y="282.0" font-size="9" font-family="Arial">H6 (636x600) - Canto frente</text>
<rect x="40.0" y="480.4" width="223.6" height="211.0" fill="#d9e8fb" stroke="#555" stroke-width="0.8"/>
<text x="43.0" y="493.4" font-size="9" font-family="Arial">H7 (636x600) - Sin canto</text>
<rect x="263.6" y="480.4" width="223.6" height="211.0" fill="#fce8d6" stroke="#555" stroke-width="0.8"/>
<text x="266.6" y="493.4" font-size="9" font-family="Arial">H8 (636x600) - Canto frente</text>
<rect x="487.3" y="480.4" width="223.6" height="201.9" fill="#d9f2e6" stroke="#555" stroke-width="0.8"/>
<text x="490.3" y="493.4" font-size="9" font-family="Arial">H19 (636x574) - Canto frente</text>
<rect x="710.9" y="480.4" width="215.2" height="179.5" fill="#f5d9fb" stroke="#555" stroke-width="0.8"/>
<text x="713.9" y="493.4" font-size="9" font-family="Arial">I8 (612x510) - Canto frente</text>
<rect x="926.2" y="480.4" width="64.0" height="176.0" fill="#fde2e2" stroke="#555" stroke-width="0.8"/>
<text x="929.2" y="493.4" font-size="9" font-family="Arial">BA15 (500x180) - Sin canto</text>
<rect x="40.0" y="795.0" width="234.1" height="155.8" fill="#fff3cd" stroke="#555" stroke-width="0.8"/>
<text x="43.0" y="808.0" font-size="9" font-family="Arial">L10 (666x442) - 4 cantos</text>
<rect x="274.1" y="795.0" width="234.1" height="155.8" fill="#d9e8fb" stroke="#555" stroke-width="0.8"/>
<text x="277.1" y="808.0" font-size="9" font-family="Arial">L11 (666x442) - 4 cantos</text>
<rect x="508.3" y="795.0" width="317.1" height="113.0" fill="#fce8d6" stroke="#555" stroke-width="0.8"/>
<text x="511.3" y="808.0" font-size="9" font-family="Arial">AA3 (903x320) - Canto frente</text>
<rect x="825.4" y="795.0" width="157.5" height="117.2" fill="#d9f2e6" stroke="#555" stroke-width="0.8"/>
<text x="828.4" y="808.0" font-size="9" font-family="Arial">H11A (447x332) - 4 cantos</text>
<rect x="40.0" y="950.8" width="317.1" height="113.0" fill="#f5d9fb" stroke="#555" stroke-width="0.8"/>
<text x="43.0" y="963.8" font-size="9" font-family="Arial">AA4 (903x320) - Sin canto</text>
<rect x="357.1" y="950.8" width="317.1" height="103.6" fill="#fde2e2" stroke="#555" stroke-width="0.8"/>
<text x="360.1" y="963.8" font-size="9" font-family="Arial">BA10 (903x293) - 4 cantos</text>
<rect x="674.2" y="950.8" width="317.1" height="103.6" fill="#fff3cd" stroke="#555" stroke-width="0.8"/>
<text x="677.2" y="963.8" font-size="9" font-family="Arial">BA11 (903x293) - 4 cantos</text>
<rect x="40.0" y="1063.8" width="277.5" height="127.7" fill="#d9e8fb" stroke="#555" stroke-width="0.8"/>
<text x="43.0" y="1076.8" font-size="9" font-family="Arial">R1 (790x362) - Canto frente</text>
<rect x="317.5" y="1063.8" width="277.5" height="117.2" fill="#fce8d6" stroke="#555" stroke-width="0.8"/>
<text x="320.5" y="1076.8" font-size="9" font-family="Arial">R2 (790x332) - Canto frente</text>
<rect x="595.1" y="1063.8" width="236.9" height="113.0" fill="#d9f2e6" stroke="#555" stroke-width="0.8"/>
<text x="598.1" y="1076.8" font-size="9" font-family="Arial">AA1 (674x320) - Canto frente</text>
<rect x="832.0" y="1063.8" width="157.5" height="117.2" fill="#f5d9fb" stroke="#555" stroke-width="0.8"/>
<text x="835.0" y="1076.8" font-size="9" font-family="Arial">H11B (447x332) - 4 cantos</text>
<rect x="40.0" y="1191.5" width="236.9" height="113.0" fill="#fde2e2" stroke="#555" stroke-width="0.8"/>
<text x="43.0" y="1204.5" font-size="9" font-family="Arial">AA2 (674x320) - Canto frente</text>
<rect x="276.9" y="1191.5" width="238.7" height="103.6" fill="#fff3cd" stroke="#555" stroke-width="0.8"/>
<text x="279.9" y="1204.5" font-size="9" font-family="Arial">BB11 (679x293) - 4 cantos</text>
<rect x="515.6" y="1191.5" width="238.7" height="103.6" fill="#d9e8fb" stroke="#555" stroke-width="0.8"/>
<text x="518.6" y="1204.5" font-size="9" font-family="Arial">BB13 (679x293) - 4 cantos</text>
<rect x="754.3" y="1191.5" width="236.2" height="103.6" fill="#fce8d6" stroke="#555" stroke-width="0.8"/>
<text x="757.3" y="1204.5" font-size="9" font-family="Arial">BB10 (672x293) - 4 cantos</text>
<rect x="40.0" y="1304.6" width="215.2" height="117.2" fill="#d9f2e6" stroke="#555" stroke-width="0.8"/>
<text x="43.0" y="1317.6" font-size="9" font-family="Arial">H10A (612x332) - 4 cantos</text>
<rect x="255.2" y="1304.6" width="215.2" height="117.2" fill="#f5d9fb" stroke="#555" stroke-width="0.8"/>
<text x="258.2" y="1317.6" font-size="9" font-family="Arial">H10B (612x332) - 4 cantos</text>
<rect x="470.5" y="1304.6" width="236.2" height="103.6" fill="#fde2e2" stroke="#555" stroke-width="0.8"/>
<text x="473.5" y="1317.6" font-size="9" font-family="Arial">BB12 (672x293) - 4 cantos</text>
<rect x="706.8" y="1304.6" width="283.1" height="64.0" fill="#fff3cd" stroke="#555" stroke-width="0.8"/>
<text x="709.8" y="1317.6" font-size="9" font-family="Arial">BA14 (806x180) - Sin canto</text>
</svg>