<svg xmlns="http://www.w3.org/2000/svg" width="1059" height="1474" viewBox="0 0 1059 1474">
<rect x="0" y="0" width="1059" height="1474" fill="#ffffff"/>
<text x="12" y="20" font-size="14" font-family="Arial">Layout de corte - blanco_18mm - hoja 4/5</text>
<rect x="40" y="58" width="980.0" height="633.5" fill="#f8f9fa" stroke="#333" stroke-width="1.2"/>
<text x="40" y="52" font-size="11" font-family="Arial">Placa 7</text>
<rect x="40" y="795" width="980.0" height="633.5" fill="#f8f9fa" stroke="#333" stroke-width="1.2"/>
<text x="40" y="789" font-size="11" font-family="Arial">Placa 8</text>
<rect x="40.0" y="58.0" width="228.5" height="211.4" fill="#d9f2e6" stroke="#555" stroke-width="0.8"/>
<text x="43.0" y="71.0" font-size="9" font-family="Arial">I8B (650x601) - Canto frente</text>
<rect x="268.5" y="58.0" width="228.5" height="211.4" fill="#f5d9fb" stroke="#555" stroke-width="0.8"/>
<text x="271.5" y="71.0" font-size="9" font-family="Arial">I8C (650x601) - Canto frente</text>
<rect x="497.1" y="58.0" width="223.6" height="211.0" fill="#fde2e2" stroke="#555" stroke-width="0.8"/>
<text x="500.1" y="71.0" font-size="9" font-family="Arial">H6 (636x600) - Canto frente</text>
<rect x="720.8" y="58.0" width="223.6" height="211.0" fill="#fff3cd" stroke="#555" stroke-width="0.8"/>
<text x="723.8" y="71.0" font-size="9" font-family="Arial">H7 (636x600) - Sin canto</text>
<rect x="944.4" y="58.0" width="64.0" height="207.2" fill="#d9e8fb" stroke="#555" stroke-width="0.8"/>
<text x="947.4" y="71.0" font-size="9" font-family="Arial">BB18 (589x180) - Sin canto</text>
<rect x="40.0" y="269.4" width="223.6" height="211.0" fill="#fce8d6" stroke="#555" stroke-width="0.8"/>
<text x="43.0" y="282.4" font-size="9" font-family="Arial">H8 (636x600) - Canto frente</text>
<rect x="263.6" y="269.4" width="223.6" height="201.9" fill="#d9f2e6" stroke="#555" stroke-width="0.8"/>
<text x="266.6" y="282.4" font-size="9" font-family="Arial">H19 (636x574) - Canto frente</text>
<rect x="487.3" y="269.4" width="308.0" height="130.2" fill="#f5d9fb" stroke="#555" stroke-width="0.8"/>
<text x="490.3" y="282.4" font-size="9" font-family="Arial">F12 (877x369) - 4 cantos</text>
<rect x="795.3" y="269.4" width="215.2" height="179.5" fill="#fde2e2" stroke="#555" stroke-width="0.8"/>
<text x="798.3" y="282.4" font-size="9" font-family="Arial">I8 (612x510) - Canto frente</text>
<rect x="40.0" y="480.4" width="308.0" height="130.2" fill="#fff3cd" stroke="#555" stroke-width="0.8"/>
<text x="43.0" y="493.4" font-size="9" font-family="Arial">F13 (877x369) - 4 cantos</text>
<rect x="348.0" y="480.4" width="317.1" height="113.0" fill="#d9e8fb" stroke="#555" stroke-width="0.8"/>
<text x="351.0" y="493.4" font-size="9" font-family="Arial">AA3 (903x320) - Canto frente</text>
<rect x="665.1" y="480.4" width="317.1" height="113.0" fill="#fce8d6" stroke="#555" stroke-width="0.8"/>
<text x="668.1" y="493.4" font-size="9" font-family="Arial">AA4 (903x320) - Sin canto</text>
<rect x="40.0" y="610.6" width="576.4" height="36.0" fill="#d9f2e6" stroke="#555" stroke-width="0.8"/>
<text x="43.0" y="623.6" font-size="9" font-family="Arial">I9B (1644x100) - Canto frente</text>
<rect x="616.4" y="610.6" width="304.5" height="36.0" fill="#f5d9fb" stroke="#555" stroke-width="0.8"/>
<text x="619.4" y="623.6" font-size="9" font-family="Arial">BA5 (867x100) - 4 cantos</text>
<rect x="40.0" y="646.7" width="553.0" height="36.0" fill="#fde2e2" stroke="#555" stroke-width="0.8"/>
<text x="43.0" y="659.7" font-size="9" font-family="Arial">L1 (1577x100) - Canto frente</text>
<rect x="593.0" y="646.7" width="304.5" height="36.0" fill="#fff3cd" stroke="#555" stroke-width="0.8"/>
<text x="596.0" y="659.7" font-size="9" font-family="Arial">BA6 (867x100) - Canto frente</text>
<rect x="40.0" y="795.0" width="234.1" height="157.8" fill="#d9e8fb" stroke="#555" stroke-width="0.8"/>
<text x="43.0" y="808.0" font-size="9" font-family="Arial">AA8 (666x448) - 4 cantos</text>
<rect x="274.1" y="795.0" width="234.1" height="157.8" fill="#fce8d6" stroke="#555" stroke-width="0.8"/>
<text x="277.1" y="808.0" font-size="9" font-family="Arial">AA9 (666x448) - 4 cantos</text>
<rect x="508.3" y="795.0" width="234.1" height="155.8" fill="#d9f2e6" stroke="#555" stroke-width="0.8"/>
<text x="511.3" y="808.0" font-size="9" font-family="Arial">L10 (666x442) - 4 cantos</text>
<rect x="742.4" y="795.0" width="234.1" height="155.8" fill="#f5d9fb" stroke="#555" stroke-width="0.8"/>
<text x="745.4" y="808.0" font-size="9" font-family="Arial">L11 (666x442) - 4 cantos</text>
<rect x="40.0" y="952.9" width="277.5" height="127.7" fill="#fde2e2" stroke="#555" stroke-width="0.8"/>
<text x="43.0" y="965.9" font-size="9" font-family="Arial">R1 (790x362) - Canto frente</text>
<rect x="317.5" y="952.9" width="317.1" height="103.6" fill="#fff3cd" stroke="#555" stroke-width="0.8"/>
<text x="320.5" y="965.9" font-size="9" font-family="Arial">BA10 (903x293) - 4 cantos</text>
<rect x="634.6" y="952.9" width="317.1" height="103.6" fill="#d9e8fb" stroke="#555" stroke-width="0.8"/>
<text x="637.6" y="965.9" font-size="9" font-family="Arial">BA11 (903x293) - 4 cantos</text>
<rect x="40.0" y="1080.6" width="211.0" height="160.3" fill="#fce8d6" stroke="#555" stroke-width="0.8"/>
<text x="43.0" y="1093.6" font-size="9" font-family="Arial">H1B (600x455) - Canto frente</text>
<rect x="251.0" y="1080.6" width="211.0" height="160.3" fill="#d9f2e6" stroke="#555" stroke-width="0.8"/>
<text x="254.0" y="1093.6" font-size="9" font-family="Arial">H2B (600x455) - Canto frente</text>
<rect x="462.1" y="1080.6" width="277.5" height="117.2" fill="#f5d9fb" stroke="#555" stroke-width="0.8"/>
<text x="465.1" y="1093.6" font-size="9" font-family="Arial">R2 (790x332) - Canto frente</text>
<rect x="739.6" y="1080.6" width="261.4" height="106.0" fill="#fde2e2" stroke="#555" stroke-width="0.8"/>
<text x="742.6" y="1093.6" font-size="9" font-family="Arial">F3 (744x300) - Canto frente</text>
<rect x="40.0" y="1240.9" width="236.9" height="113.0" fill="#fff3cd" stroke="#555" stroke-width="0.8"/>
<text x="43.0" y="1253.9" font-size="9" font-family="Arial">AA1 (674x320) - Canto frente</text>
<rect x="276.9" y="1240.9" width="236.9" height="113.0" fill="#d9e8fb" stroke="#555" stroke-width="0.8"/>
<text x="279.9" y="1253.9" font-size="9" font-family="Arial">AA2 (674x320) - Canto frente</text>
<rect x="513.9" y="1240.9" width="248.8" height="99.8" fill="#fce8d6" stroke="#555" stroke-width="0.8"/>
<text x="516.9" y="1253.9" font-size="9" font-family="Arial">F7 (708x282) - Canto frente</text>
<rect x="762.8" y="1240.9" width="248.8" height="99.8" fill="#d9f2e6" stroke="#555" stroke-width="0.8"/>
<text x="765.8" y="1253.9" font-size="9" font-family="Arial">F9 (708x282) - Canto frente</text>
<rect x="40.0" y="1353.9" width="553.0" height="36.0" fill="#f5d9fb" stroke="#555" stroke-width="0.8"/>
<text x="43.0" y="1366.9" font-size="9" font-family="Arial">L15 (1577x100) - Canto frente</text>
<rect x="593.0" y="1353.9" width="274.8" height="36.0" fill="#fde2e2" stroke="#555" stroke-width="0.8"/>
<text x="596.0" y="1366.9" font-size="9" font-family="Arial">R5 (782x100) - Sin canto</text>
<rect x="40.0" y="1390.0" width="553.0" height="36.0" fill="#fff3cd" stroke="#555" stroke-width="0.8"/>
<text x="43.0" y="1403.0" font-size="9" font-family="Arial">L16 (1577x100) - Canto frente</text>
<rect x="593.0" y="1390.0" width="219.8" height="36.0" fill="#d9e8fb" stroke="#555" stroke-width="0.8"/>
<text x="596.0" y="1403.0" font-size="9" font-family="Arial">L15B (625x100) - Canto frente</text>
<rect x="812.8" y="1390.0" width="176.0" height="22.0" fill="#fce8d6" stroke="#555" stroke-width="0.8"/>
<text x="815.8" y="1403.0" font-size="9" font-family="Arial">BB14 (500x60) - Sin canto</text>
</svg>