<svg xmlns="http://www.w3.org/2000/svg" width="1059" height="1474" viewBox="0 0 1059 1474">
<rect x="0" y="0" width="1059" height="1474" fill="#ffffff"/>
<text x="12" y="20" font-size="14" font-family="Arial">Layout de corte - blanco_18mm - hoja 1/5</text>
<rect x="40" y="58" width="980.0" height="633.5" fill="#f8f9fa" stroke="#333" stroke-width="1.2"/>
<text x="40" y="52" font-size="11" font-family="Arial">Placa 1</text>
<rect x="40" y="795" width="980.0" height="633.5" fill="#f8f9fa" stroke="#333" stroke-width="1.2"/>
<text x="40" y="789" font-size="11" font-family="Arial">Placa 2</text>
<rect x="40.0" y="58.0" width="813.0" height="333.5" fill="#d9e8fb" stroke="#555" stroke-width="0.8"/>
<text x="43.0" y="71.0" font-size="9" font-family="Arial">F1 (2320x950) - Crudo (cinta 36mm en obra)</text>
<rect x="853.0" y="58.0" width="158.5" height="277.5" fill="#fce8d6" stroke="#555" stroke-width="0.8"/>
<text x="856.0" y="71.0" font-size="9" font-family="Arial">R2 (790x450) - Canto frente</text>
<rect x="40.0" y="391.5" width="764.0" height="261.4" fill="#d9f2e6" stroke="#555" stroke-width="0.8"/>
<text x="43.0" y="404.5" font-size="9" font-family="Arial">F5 (744x2180) - Sin canto</text>
<rect x="804.0" y="391.5" width="154.3" height="229.9" fill="#f5d9fb" stroke="#555" stroke-width="0.8"/>
<text x="807.0" y="404.5" font-size="9" font-family="Arial">H11 (654x438) - 4 cantos</text>
<rect x="40.0" y="653.0" width="806.8" height="29.7" fill="#fde2e2" stroke="#555" stroke-width="0.8"/>
<text x="43.0" y="666.0" font-size="9" font-family="Arial">F24 (2302x82) - Sin canto</text>
<rect x="846.8" y="653.0" width="101.8" height="18.5" fill="#fff3cd" stroke="#555" stroke-width="0.8"/>
<text x="849.8" y="666.0" font-size="9" font-family="Arial">I8C (288x50) - Canto frente</text>
<rect x="40.0" y="795.0" width="792.8" height="333.5" fill="#d9e8fb" stroke="#555" stroke-width="0.8"/>
<text x="43.0" y="808.0" font-size="9" font-family="Arial">F2 (2262x950) - Crudo (cinta 36mm en obra)</text>
<rect x="832.8" y="795.0" width="157.8" height="271.2" fill="#fce8d6" stroke="#555" stroke-width="0.8"/>
<text x="835.8" y="808.0" font-size="9" font-family="Arial">I1B (772x448) - Canto frente</text>
<rect x="40.0" y="1128.5" width="612.5" height="267.1" fill="#d9f2e6" stroke="#555" stroke-width="0.8"/>
<text x="43.0" y="1141.5" font-size="9" font-family="Arial">L5 (1747x760) - Canto frente</text>
<rect x="652.5" y="1128.5" width="312.5" height="267.1" fill="#f5d9fb" stroke="#555" stroke-width="0.8"/>
<text x="655.5" y="1141.5" font-size="9" font-family="Arial">L3 (890x760) - Canto frente</text>
<rect x="40.0" y="1395.6" width="310.8" height="32.5" fill="#fde2e2" stroke="#555" stroke-width="0.8"/>
<text x="43.0" y="1408.6" font-size="9" font-family="Arial">AA10 (885x90) - 4 cantos</text>
<rect x="350.8" y="1395.6" width="221.9" height="22.0" fill="#fff3cd" stroke="#555" stroke-width="0.8"/>
<text x="353.8" y="1408.6" font-size="9" font-family="Arial">H15 (631x60) - Canto frente</text>
<rect x="572.7" y="1395.6" width="221.9" height="22.0" fill="#d9e8fb" stroke="#555" stroke-width="0.8"/>
<text x="575.7" y="1408.6" font-size="9" font-family="Arial">H16 (631x60) - Canto frente</text>
<rect x="794.6" y="1395.6" width="221.5" height="22.0" fill="#fce8d6" stroke="#555" stroke-width="0.8"/>
<text x="797.6" y="1408.6" font-size="9" font-family="Arial">L7 (630x60) - Cantos vistos</text>
</svg>